<mxfile host="app.diagrams.net" modified="2021-03-02T03:54:49.142Z" agent="5.0 (Windows NT 10.0; Win64; x64) AppleWebKit/537.36 (KHTML, like Gecko) Chrome/88.0.4324.190 Safari/537.36" etag="OvKCn-usQu-4R_7wbdS-" version="14.4.2" type="github">
  <diagram id="Ly9xeMRTH8l39dby5eXf" name="Page-1">
    <mxGraphModel dx="2484" dy="737" grid="1" gridSize="10" guides="1" tooltips="1" connect="1" arrows="1" fold="1" page="1" pageScale="1" pageWidth="827" pageHeight="1169" math="0" shadow="0">
      <root>
        <mxCell id="0" />
        <mxCell id="1" parent="0" />
        <mxCell id="nMmFAEfQJAgYGgBvK24--1" value="Usuario" style="shape=umlActor;verticalLabelPosition=bottom;verticalAlign=top;html=1;" parent="1" vertex="1">
          <mxGeometry x="10" y="10" width="30" height="60" as="geometry" />
        </mxCell>
        <mxCell id="br3t5StxzEERa4oaLv2C-2" value="" style="endArrow=none;html=1;entryX=0;entryY=0.5;entryDx=0;entryDy=0;" edge="1" parent="1" source="nMmFAEfQJAgYGgBvK24--1" target="br3t5StxzEERa4oaLv2C-3">
          <mxGeometry width="50" height="50" relative="1" as="geometry">
            <mxPoint x="280" y="320" as="sourcePoint" />
            <mxPoint x="90" y="40" as="targetPoint" />
          </mxGeometry>
        </mxCell>
        <mxCell id="br3t5StxzEERa4oaLv2C-3" value="Iniciar sesi贸n" style="ellipse;whiteSpace=wrap;html=1;" vertex="1" parent="1">
          <mxGeometry x="80" width="100" height="30" as="geometry" />
        </mxCell>
        <mxCell id="br3t5StxzEERa4oaLv2C-4" value="" style="endArrow=none;html=1;entryX=0;entryY=0.5;entryDx=0;entryDy=0;" edge="1" parent="1" source="nMmFAEfQJAgYGgBvK24--1" target="br3t5StxzEERa4oaLv2C-5">
          <mxGeometry width="50" height="50" relative="1" as="geometry">
            <mxPoint x="90" y="100" as="sourcePoint" />
            <mxPoint x="90" y="60" as="targetPoint" />
          </mxGeometry>
        </mxCell>
        <mxCell id="br3t5StxzEERa4oaLv2C-5" value="Registrarse" style="ellipse;whiteSpace=wrap;html=1;" vertex="1" parent="1">
          <mxGeometry x="90" y="40" width="100" height="30" as="geometry" />
        </mxCell>
        <mxCell id="br3t5StxzEERa4oaLv2C-7" style="edgeStyle=orthogonalEdgeStyle;rounded=0;orthogonalLoop=1;jettySize=auto;html=1;" edge="1" parent="1" source="br3t5StxzEERa4oaLv2C-6">
          <mxGeometry relative="1" as="geometry">
            <mxPoint x="25" y="90" as="targetPoint" />
          </mxGeometry>
        </mxCell>
        <mxCell id="br3t5StxzEERa4oaLv2C-6" value="Usuario registrado" style="shape=umlActor;verticalLabelPosition=bottom;verticalAlign=top;html=1;" vertex="1" parent="1">
          <mxGeometry x="10" y="170" width="30" height="60" as="geometry" />
        </mxCell>
        <mxCell id="br3t5StxzEERa4oaLv2C-8" value="" style="endArrow=none;html=1;entryX=0;entryY=0.5;entryDx=0;entryDy=0;" edge="1" parent="1" source="nMmFAEfQJAgYGgBvK24--1" target="br3t5StxzEERa4oaLv2C-9">
          <mxGeometry width="50" height="50" relative="1" as="geometry">
            <mxPoint x="280" y="310" as="sourcePoint" />
            <mxPoint x="110" y="110" as="targetPoint" />
          </mxGeometry>
        </mxCell>
        <mxCell id="br3t5StxzEERa4oaLv2C-9" value="Ver catalogo" style="ellipse;whiteSpace=wrap;html=1;" vertex="1" parent="1">
          <mxGeometry x="90" y="90" width="100" height="30" as="geometry" />
        </mxCell>
        <mxCell id="br3t5StxzEERa4oaLv2C-16" style="edgeStyle=orthogonalEdgeStyle;rounded=0;orthogonalLoop=1;jettySize=auto;html=1;" edge="1" parent="1" source="br3t5StxzEERa4oaLv2C-11">
          <mxGeometry relative="1" as="geometry">
            <mxPoint x="30" y="260" as="targetPoint" />
            <Array as="points">
              <mxPoint x="30" y="420" />
            </Array>
          </mxGeometry>
        </mxCell>
        <mxCell id="br3t5StxzEERa4oaLv2C-11" value="comprador" style="shape=umlActor;verticalLabelPosition=bottom;verticalAlign=top;html=1;" vertex="1" parent="1">
          <mxGeometry x="195" y="390" width="30" height="60" as="geometry" />
        </mxCell>
        <mxCell id="br3t5StxzEERa4oaLv2C-15" style="edgeStyle=orthogonalEdgeStyle;rounded=0;orthogonalLoop=1;jettySize=auto;html=1;" edge="1" parent="1" source="br3t5StxzEERa4oaLv2C-13">
          <mxGeometry relative="1" as="geometry">
            <mxPoint x="50" y="200" as="targetPoint" />
            <Array as="points">
              <mxPoint x="130" y="200" />
            </Array>
          </mxGeometry>
        </mxCell>
        <mxCell id="br3t5StxzEERa4oaLv2C-13" value="vendedor" style="shape=umlActor;verticalLabelPosition=bottom;verticalAlign=top;html=1;" vertex="1" parent="1">
          <mxGeometry x="190" y="280" width="30" height="60" as="geometry" />
        </mxCell>
        <mxCell id="br3t5StxzEERa4oaLv2C-17" value="Negociar" style="ellipse;whiteSpace=wrap;html=1;" vertex="1" parent="1">
          <mxGeometry x="330" y="360" width="80" height="30" as="geometry" />
        </mxCell>
        <mxCell id="br3t5StxzEERa4oaLv2C-18" value="" style="endArrow=none;html=1;entryX=0;entryY=0.5;entryDx=0;entryDy=0;" edge="1" parent="1" target="br3t5StxzEERa4oaLv2C-19">
          <mxGeometry width="50" height="50" relative="1" as="geometry">
            <mxPoint x="50" y="180" as="sourcePoint" />
            <mxPoint x="160" y="180" as="targetPoint" />
          </mxGeometry>
        </mxCell>
        <mxCell id="br3t5StxzEERa4oaLv2C-19" value="Realizar transacci贸n" style="ellipse;whiteSpace=wrap;html=1;" vertex="1" parent="1">
          <mxGeometry x="160" y="160" width="100" height="30" as="geometry" />
        </mxCell>
        <mxCell id="br3t5StxzEERa4oaLv2C-21" value="Pagar con&lt;br&gt;tarjeta" style="ellipse;whiteSpace=wrap;html=1;" vertex="1" parent="1">
          <mxGeometry x="290" y="100" width="100" height="30" as="geometry" />
        </mxCell>
        <mxCell id="br3t5StxzEERa4oaLv2C-22" value="Pago m贸vil" style="ellipse;whiteSpace=wrap;html=1;" vertex="1" parent="1">
          <mxGeometry x="350" y="175" width="100" height="30" as="geometry" />
        </mxCell>
        <mxCell id="br3t5StxzEERa4oaLv2C-23" value="Pagar usando plataforma de pago" style="ellipse;whiteSpace=wrap;html=1;" vertex="1" parent="1">
          <mxGeometry x="290" y="240" width="130" height="60" as="geometry" />
        </mxCell>
        <mxCell id="br3t5StxzEERa4oaLv2C-28" value="" style="endArrow=none;html=1;exitX=1;exitY=0.5;exitDx=0;exitDy=0;" edge="1" parent="1" source="br3t5StxzEERa4oaLv2C-23">
          <mxGeometry width="50" height="50" relative="1" as="geometry">
            <mxPoint x="440" y="250" as="sourcePoint" />
            <mxPoint x="480" y="255" as="targetPoint" />
          </mxGeometry>
        </mxCell>
        <mxCell id="br3t5StxzEERa4oaLv2C-29" value="" style="endArrow=none;html=1;exitX=1;exitY=0.5;exitDx=0;exitDy=0;" edge="1" parent="1" source="br3t5StxzEERa4oaLv2C-22">
          <mxGeometry width="50" height="50" relative="1" as="geometry">
            <mxPoint x="420" y="210" as="sourcePoint" />
            <mxPoint x="510" y="200" as="targetPoint" />
          </mxGeometry>
        </mxCell>
        <mxCell id="br3t5StxzEERa4oaLv2C-30" value="" style="endArrow=none;html=1;exitX=1;exitY=0.5;exitDx=0;exitDy=0;" edge="1" parent="1" source="br3t5StxzEERa4oaLv2C-21" target="br3t5StxzEERa4oaLv2C-33">
          <mxGeometry width="50" height="50" relative="1" as="geometry">
            <mxPoint x="400" y="140" as="sourcePoint" />
            <mxPoint x="460" y="145" as="targetPoint" />
          </mxGeometry>
        </mxCell>
        <mxCell id="br3t5StxzEERa4oaLv2C-31" value="plataformas de pago" style="shape=umlActor;verticalLabelPosition=bottom;verticalAlign=top;html=1;" vertex="1" parent="1">
          <mxGeometry x="480" y="250" width="30" height="60" as="geometry" />
        </mxCell>
        <mxCell id="br3t5StxzEERa4oaLv2C-32" value="Servicio de&lt;br&gt;pago m贸vil" style="shape=umlActor;verticalLabelPosition=bottom;verticalAlign=top;html=1;" vertex="1" parent="1">
          <mxGeometry x="520" y="160" width="30" height="60" as="geometry" />
        </mxCell>
        <mxCell id="br3t5StxzEERa4oaLv2C-33" value="Servicio de pago&lt;br&gt;con tarjeta de creidto" style="shape=umlActor;verticalLabelPosition=bottom;verticalAlign=top;html=1;" vertex="1" parent="1">
          <mxGeometry x="460" y="40" width="30" height="60" as="geometry" />
        </mxCell>
        <mxCell id="br3t5StxzEERa4oaLv2C-36" value="Extends" style="endArrow=block;endSize=16;endFill=0;html=1;exitX=0.5;exitY=0;exitDx=0;exitDy=0;entryX=0;entryY=0.5;entryDx=0;entryDy=0;" edge="1" parent="1" source="br3t5StxzEERa4oaLv2C-19" target="br3t5StxzEERa4oaLv2C-21">
          <mxGeometry width="160" relative="1" as="geometry">
            <mxPoint x="180" y="140" as="sourcePoint" />
            <mxPoint x="340" y="140" as="targetPoint" />
          </mxGeometry>
        </mxCell>
        <mxCell id="br3t5StxzEERa4oaLv2C-37" value="Extends" style="endArrow=block;endSize=16;endFill=0;html=1;" edge="1" parent="1" target="br3t5StxzEERa4oaLv2C-22">
          <mxGeometry width="160" relative="1" as="geometry">
            <mxPoint x="260" y="174.5" as="sourcePoint" />
            <mxPoint x="420" y="174.5" as="targetPoint" />
          </mxGeometry>
        </mxCell>
        <mxCell id="br3t5StxzEERa4oaLv2C-38" value="Extends" style="endArrow=block;endSize=16;endFill=0;html=1;exitX=0.5;exitY=1;exitDx=0;exitDy=0;entryX=0;entryY=0.5;entryDx=0;entryDy=0;" edge="1" parent="1" source="br3t5StxzEERa4oaLv2C-19" target="br3t5StxzEERa4oaLv2C-23">
          <mxGeometry width="160" relative="1" as="geometry">
            <mxPoint x="100" y="560" as="sourcePoint" />
            <mxPoint x="260" y="560" as="targetPoint" />
          </mxGeometry>
        </mxCell>
        <mxCell id="br3t5StxzEERa4oaLv2C-40" value="" style="endArrow=none;html=1;entryX=0.063;entryY=0.2;entryDx=0;entryDy=0;entryPerimeter=0;" edge="1" parent="1" source="br3t5StxzEERa4oaLv2C-13" target="br3t5StxzEERa4oaLv2C-17">
          <mxGeometry width="50" height="50" relative="1" as="geometry">
            <mxPoint x="190" y="360" as="sourcePoint" />
            <mxPoint x="240" y="310" as="targetPoint" />
          </mxGeometry>
        </mxCell>
        <mxCell id="br3t5StxzEERa4oaLv2C-41" value="" style="endArrow=none;html=1;entryX=0.013;entryY=0.3;entryDx=0;entryDy=0;entryPerimeter=0;" edge="1" parent="1" source="br3t5StxzEERa4oaLv2C-11" target="br3t5StxzEERa4oaLv2C-17">
          <mxGeometry width="50" height="50" relative="1" as="geometry">
            <mxPoint x="230" y="329.9095966620307" as="sourcePoint" />
            <mxPoint x="330.03999999999996" y="396" as="targetPoint" />
          </mxGeometry>
        </mxCell>
        <mxCell id="br3t5StxzEERa4oaLv2C-42" value="" style="endArrow=none;html=1;exitX=1;exitY=0.5;exitDx=0;exitDy=0;" edge="1" parent="1" source="br3t5StxzEERa4oaLv2C-43" target="br3t5StxzEERa4oaLv2C-6">
          <mxGeometry width="50" height="50" relative="1" as="geometry">
            <mxPoint x="-70" y="201" as="sourcePoint" />
            <mxPoint x="-10" y="210" as="targetPoint" />
          </mxGeometry>
        </mxCell>
        <mxCell id="br3t5StxzEERa4oaLv2C-43" value="Publicar producto o servicio" style="ellipse;whiteSpace=wrap;html=1;" vertex="1" parent="1">
          <mxGeometry x="-210" y="175" width="120" height="50" as="geometry" />
        </mxCell>
      </root>
    </mxGraphModel>
  </diagram>
</mxfile>
